HIERARCHY
ROOT root
{
	OFFSET	0	13.1	24.9
	CHANNELS 6  Xposition Yposition Zposition Xrotation Yrotation Zrotation
	JOINT spine_1
	{
		OFFSET	0	9.99999	0
		CHANNELS 3  Xrotation Yrotation Zrotation
		JOINT spine_2
		{
			OFFSET	0	112	-10
			CHANNELS 3  Xrotation Yrotation Zrotation
			JOINT spine_3
			{
				OFFSET	0	206.5	19.3
				CHANNELS 3  Xrotation Yrotation Zrotation
				JOINT spine_4
				{
					OFFSET	0	110.4	14.6
					CHANNELS 3  Xrotation Yrotation Zrotation
					JOINT neck_1
					{
						OFFSET	0	71.8	-50.3
						CHANNELS 3  Xrotation Yrotation Zrotation
						JOINT neck_2
						{
							OFFSET	0	86.2	-25.8
							CHANNELS 3  Xrotation Yrotation Zrotation
							JOINT head_ee
							{
								OFFSET	0	179.8	-8.7
								CHANNELS 3  Xrotation Yrotation Zrotation
								End Site
								{
									OFFSET	1	0	0
								}
							}
						}
					}
					JOINT left_clavicle
					{
						OFFSET	-43.2	22.4	-70.8
						CHANNELS 3  Xrotation Yrotation Zrotation
						JOINT left_shoulder
						{
							OFFSET	-93.9	-5.79999	48.7
							CHANNELS 3  Xrotation Yrotation Zrotation
							JOINT left_elbow
							{
								OFFSET	-291.4	-30.8	15.2
								CHANNELS 3  Xrotation Yrotation Zrotation
								JOINT left_lowarm_twist
								{
									OFFSET	-110.7	-3.89999	13.6
									CHANNELS 3  Xrotation Yrotation Zrotation
									JOINT left_hand
									{
										OFFSET	-110.7	-3.89999	13.6
										CHANNELS 3  Xrotation Yrotation Zrotation
										JOINT left_ee
										{
											OFFSET	-80.8	-5.10001	12.1
											CHANNELS 3  Xrotation Yrotation Zrotation
											End Site
											{
												OFFSET	1	0	0
											}
										}
									}
								}
							}
						}
					}
					JOINT right_clavicle
					{
						OFFSET	43.2	22.4	-70.8
						CHANNELS 3  Xrotation Yrotation Zrotation
						JOINT right_shoulder
						{
							OFFSET	93.9	-5.79999	48.7
							CHANNELS 3  Xrotation Yrotation Zrotation
							JOINT right_elbow
							{
								OFFSET	291.4	-30.8	15.2
								CHANNELS 3  Xrotation Yrotation Zrotation
								JOINT right_lowarm_twist
								{
									OFFSET	110.7	-3.89999	13.6
									CHANNELS 3  Xrotation Yrotation Zrotation
									JOINT right_hand
									{
										OFFSET	110.7	-3.89999	13.6
										CHANNELS 3  Xrotation Yrotation Zrotation
										JOINT right_ee
										{
											OFFSET	80.8	-5.10001	12.1
											CHANNELS 3  Xrotation Yrotation Zrotation
											End Site
											{
												OFFSET	1	0	0
											}
										}
									}
								}
							}
						}
					}
				}
			}
		}
	}
	JOINT left_hip
	{
		OFFSET	-82.8	-127.5	0.300001
		CHANNELS 3  Xrotation Yrotation Zrotation
		JOINT left_knee
		{
			OFFSET	-28.2	-396.7	2.2
			CHANNELS 3  Xrotation Yrotation Zrotation
			JOINT left_ankle
			{
				OFFSET	-11.7	-411.3	35.4
				CHANNELS 3  Xrotation Yrotation Zrotation
				JOINT left_toes
				{
					OFFSET	0	-60	-88.6
					CHANNELS 3  Xrotation Yrotation Zrotation
					JOINT left_foot_ee
					{
						OFFSET	-22.5	-16.5	-42.2
						CHANNELS 3  Xrotation Yrotation Zrotation
						End Site
						{
							OFFSET	1	0	0
						}
					}
				}
			}
		}
	}
	JOINT right_hip
	{
		OFFSET	82.8	-127.5	0.300001
		CHANNELS 3  Xrotation Yrotation Zrotation
		JOINT right_knee
		{
			OFFSET	28.2	-396.7	2.2
			CHANNELS 3  Xrotation Yrotation Zrotation
			JOINT right_ankle
			{
				OFFSET	11.7	-411.3	35.4
				CHANNELS 3  Xrotation Yrotation Zrotation
				JOINT right_toes
				{
					OFFSET	0	-60	-88.6
					CHANNELS 3  Xrotation Yrotation Zrotation
					JOINT right_foot_ee
					{
						OFFSET	22.5	-16.5	-42.2
						CHANNELS 3  Xrotation Yrotation Zrotation
						End Site
						{
							OFFSET	1	0	0
						}
					}
				}
			}
		}
	}
}
MOTION
Frames: 6
Frame Time: 0.02
3177.02 653.055 -1669.29 -1.39204353404 16.5705083615 7.42011611551 -2.42664 -0.152859 -0.987181 -2.4261 -0.0897355 -0.994906 -2.4239 0.163212 -0.985522 -2.42525 0.00552711 -0.998929 3.65466 20.1432 7.59812 4.54254 28.5753 9.55293 -0.0 0.0 -0.0 4.35483 10.7552 8.72656 -24.7812 -30.703 66.0117 0.509258 -14.1588 0.0632461 -2.08391 -0.0780708 0.25464 2.51508 3.67128 18.4852 -0.0 0.0 -0.0 11.857 16.2966 -23.82 -5.59772 46.0528 -41.5508 1.04934 27.4653 -0.256442 35.1621 0.121826 4.42037 1.00247 18.5345 1.19847 0.0 0.0 0.0 24.2331 -23.4257 -12.7429 -4.39751 0.155915 0.65671 -20.5853 28.1478 3.28262 30.195 -0.0 -0.0 -0.0 0.0 -0.0 -1.23212 31.3891 -13.1811 -23.9865 -0.227053 -3.64711 40.2615 -21.8448 5.09905 22.3471 -0.0 -0.0 0.0 0.0 0.0 
3156.08832141 652.742 -1685.1171454 -1.1554276077 15.5437924616 7.28469433023 -2.4525 -0.0949935 -1.03036 -2.45191 -0.02924 -1.03432 -2.45074 0.232155 -1.00835 -2.45215 0.0699993 -1.03236 4.39652 20.2357 7.66304 5.31573 28.4088 9.5438 -0.0 0.0 -0.0 4.84023 11.3003 9.56861 -23.6148 -30.8413 65.7424 0.493757 -13.7445 0.0595088 -2.45858 -0.0930884 0.300118 2.41344 4.27716 18.0047 -0.0 0.0 -0.0 11.8239 16.0197 -23.7563 -6.97978 44.8822 -41.6025 1.01239 26.6335 -0.239637 34.6103 0.0990001 4.35364 1.09248 18.6921 0.669712 0.0 0.0 0.0 23.7127 -23.837 -12.3497 -7.18274 0.228407 1.07796 -18.5753 27.8822 2.95471 30.8084 -0.0 -0.0 -0.0 0.0 -0.0 -1.33004 31.8064 -12.136 -26.5635 -0.160276 -4.03693 39.6691 -21.1744 5.02621 23.0694 -0.0 -0.0 0.0 0.0 0.0 
3156.04424167 652.742 -1685.05867979 -1.15632946686 15.7036279973 7.28804299993 -2.4525 -0.0949935 -1.03036 -2.45191 -0.02924 -1.03432 -2.45074 0.232155 -1.00835 -2.45215 0.0699993 -1.03236 4.39652 20.2357 7.66304 5.31573 28.4088 9.5438 -0.0 0.0 -0.0 4.84023 11.3003 9.56861 -23.6148 -30.8413 65.7424 0.493757 -13.7445 0.0595088 -2.45858 -0.0930884 0.300118 2.41344 4.27716 18.0047 -0.0 0.0 -0.0 11.8239 16.0197 -23.7563 -6.97978 44.8822 -41.6025 1.01239 26.6335 -0.239637 34.6103 0.0990001 4.35364 1.09248 18.6921 0.669712 0.0 0.0 0.0 23.7127 -23.837 -12.3497 -7.18274 0.228407 1.07796 -18.5753 27.8822 2.95471 30.8084 -0.0 -0.0 -0.0 0.0 -0.0 -1.33004 31.8064 -12.136 -26.5635 -0.160276 -4.03693 39.6691 -21.1744 5.02621 23.0694 -0.0 -0.0 0.0 0.0 0.0 
3156.00499543 652.742 -1685.00633808 -1.15714407542 15.8464377967 7.29103941405 -2.4525 -0.0949935 -1.03036 -2.45191 -0.02924 -1.03432 -2.45074 0.232155 -1.00835 -2.45215 0.0699993 -1.03236 4.39652 20.2357 7.66304 5.31573 28.4088 9.5438 -0.0 0.0 -0.0 4.84023 11.3003 9.56861 -23.6148 -30.8413 65.7424 0.493757 -13.7445 0.0595088 -2.45858 -0.0930884 0.300118 2.41344 4.27716 18.0047 -0.0 0.0 -0.0 11.8239 16.0197 -23.7563 -6.97978 44.8822 -41.6025 1.01239 26.6335 -0.239637 34.6103 0.0990001 4.35364 1.09248 18.6921 0.669712 0.0 0.0 0.0 23.7127 -23.837 -12.3497 -7.18274 0.228407 1.07796 -18.5753 27.8822 2.95471 30.8084 -0.0 -0.0 -0.0 0.0 -0.0 -1.33004 31.8064 -12.136 -26.5635 -0.160276 -4.03693 39.6691 -21.1744 5.02621 23.0694 -0.0 -0.0 0.0 0.0 0.0 
3096.87525674 662.406 -1756.67162923 0.724836453008 13.2181506929 7.87534677598 -2.93799 -0.0492684 -1.17516 -2.93723 0.0256047 -1.17591 -2.93689 0.330497 -1.12881 -2.93863 0.148087 -1.16683 4.58299 19.1888 7.23087 5.40515 26.8863 9.0212 -0.0 0.0 -0.0 6.48071 10.7656 12.4307 -18.524 -30.5903 61.4057 0.48822 -13.5961 0.0582003 -2.24911 -0.0846556 0.274704 2.11898 6.21288 16.691 -0.0 0.0 -0.0 11.5479 14.6062 -23.1816 -10.0191 42.6418 -45.5068 0.753454 20.4675 -0.136028 33.3754 0.0502469 4.2035 1.0242 16.5399 0.176699 0.0 0.0 0.0 22.9541 -27.1319 -10.9391 -20.9599 0.282994 3.18611 -14.91 29.1466 2.38468 33.223 -0.0 -0.0 -0.0 0.0 -0.0 0.51422 32.3787 -11.8917 -34.4768 0.153273 -5.20987 32.4033 -27.3455 4.44607 24.393 -0.0 -0.0 0.0 0.0 0.0 
3079.26749078 665.301 -1785.74926945 1.17303541035 13.0857933927 7.37343141766 -3.0271 -0.193614 -0.90739 -3.02665 -0.135485 -0.91787 -3.02382 0.109215 -0.921365 -3.025 -0.0376621 -0.92705 5.65623 19.2309 7.35161 6.50034 26.473 9.06384 -0.0 0.0 -0.0 6.84 13.5516 12.9332 -15.4637 -31.5632 58.2875 0.456926 -12.7541 0.0510674 -2.99074 -0.11493 0.364544 2.05779 7.05977 16.5828 -0.0 0.0 -0.0 11.5239 14.8885 -23.1175 -11.6124 41.2461 -46.9589 0.65565 17.9934 -0.103807 33.0279 0.0371158 4.16108 1.1747 17.6602 -0.334104 0.0 0.0 0.0 21.6544 -29.092 -8.53061 -24.1749 0.222764 3.67572 -10.7188 30.18 1.71897 34.2929 -0.0 -0.0 -0.0 0.0 -0.0 0.00415487 30.621 -11.174 -35.6435 0.213121 -5.37882 31.0627 -28.4783 4.32664 25.3921 -0.0 -0.0 0.0 0.0 0.0 
